:SAMPLES-PER-SECOND 30
:FULLY-SPECIFIED
:DEGREES
1021
root  33.284 39.4499 11.9726 -178.963 58.3472 -178.729
RightUpLeg  -6.3322 -41.421 -9.56796
RightLeg  23.9303 -15.0229 -6.46184
RightFoot  -6.68483 -0.24023 4.78846
RightToes  0.000481921 0.542163 -0.142578
Spine  21.6421 0.292339 14.3657
Spine1  4.05267 3.48162 -3.05579
HEad  0.64255 -19.0506 -6.18291
LeftShoulder1  7.26768 -13.4835 -36.677
LeftArm  17.3596 -9.32769 -38.1518
LeftForeArm  -167.354 -68.8525 -157.531
LeftHand  -0.25398 0.0180481 5.50724
RightShoulder  3.19273 6.2942 26.4902
RightArm  -39.0562 -2.42425 13.3292
RightForeArm  156.526 66.0741 155.921
RightHand  -0.150442 -3.00601 -6.37063
LeftUpLeg  -17.6798 7.62094 5.8622
LeftLeg  14.6248 -14.1938 -3.96885
LeftFoot  3.49548 1.31118 -10.2322
LeftToes  1.06244e-005 4.65869e-005 -8.65518e-006
1022
root  32.8659 39.5201 12.1946 -179.582 59.6576 179.805
RightUpLeg  -8.98337 -39.3589 -8.45721
RightLeg  23.991 -15.7996 -7.07561
RightFoot  -5.92166 -0.233129 4.07115
RightToes  0.000481921 0.542163 -0.142578
Spine  23.1281 0.888357 19.1038
Spine1  4.58109 7.03782 -10.9006
HEad  0.245901 -20.5786 -5.80675
LeftShoulder1  7.14534 -13.7117 -35.4333
LeftArm  14.6406 -11.4438 -37.4733
LeftForeArm  -169.524 -67.6328 -158.609
LeftHand  -0.25398 0.0180481 5.50724
RightShoulder  2.4738 5.50199 21.1749
RightArm  -43.9537 12.6741 5.89065
RightForeArm  98.1979 78.5038 90.5556
RightHand  -0.243735 -1.28269 -6.7004
LeftUpLeg  -17.4249 7.59231 5.23122
LeftLeg  11.6165 -12.7932 -3.27805
LeftFoot  5.477 1.43977 -9.95848
LeftToes  1.06244e-005 4.65869e-005 -8.65518e-006
1023
root  32.4306 39.4398 12.4213 179.066 62.6199 177.54
RightUpLeg  -13.0802 -36.6489 -7.22584
RightLeg  25.7953 -15.3421 -8.21561
RightFoot  -5.73267 -0.195299 3.18308
RightToes  0.000481921 0.542163 -0.142578
Spine  25.0722 1.23763 21.9911
Spine1  4.66755 9.93587 -17.5439
HEad  0.908381 -20.2782 -6.66436
LeftShoulder1  6.97663 -13.8484 -34.1513
LeftArm  10.3017 -11.5527 -36.2586
LeftForeArm  -172.134 -66.2431 -159.703
LeftHand  -0.25398 0.0180481 5.50724
RightShoulder  1.96429 5.72213 14.536
RightArm  -50.4634 29.5222 -1.85319
RightForeArm  30.0762 51.9588 10.8391
RightHand  -0.443878 2.87514 -6.57604
LeftUpLeg  -18.0408 7.96965 4.5903
LeftLeg  10.896 -10.1438 -2.95464
LeftFoot  6.5052 1.33695 -8.75068
LeftToes  1.06244e-005 4.65869e-005 -8.65518e-006
1024
root  32.106 39.256 12.671 177.322 65.3602 174.664
RightUpLeg  -17.1968 -33.816 -6.62813
RightLeg  28.5337 -15.1755 -8.98676
RightFoot  -6.16754 -0.147084 2.31679
RightToes  0.000481921 0.542163 -0.142578
Spine  27.0716 1.6304 23.2119
Spine1  3.93756 12.0614 -22.4491
HEad  1.29026 -20.0146 -7.31079
LeftShoulder1  6.61634 -13.6741 -32.4746
LeftArm  6.81574 -11.0979 -36.329
LeftForeArm  -173.575 -65.4101 -160.308
LeftHand  -0.25398 0.0180481 5.50724
RightShoulder  1.32208 6.03343 6.0958
RightArm  -57.4859 41.0668 -7.56341
RightForeArm  29.0656 17.2057 1.11563
RightHand  -0.377968 4.22896 -4.73678
LeftUpLeg  -19.5924 9.68982 3.66777
LeftLeg  11.763 -8.89415 -3.00976
LeftFoot  6.60473 1.25491 -8.19266
LeftToes  1.06244e-005 4.65869e-005 -8.65518e-006
1025
root  31.9756 39.0714 12.9059 177.417 65.5632 173.667
RightUpLeg  -20.0879 -34.5728 -5.72308
RightLeg  30.4965 -14.1933 -9.09954
RightFoot  -6.99792 -0.110262 1.68104
RightToes  0.000481921 0.542163 -0.142578
Spine  27.8346 2.00851 23.0939
Spine1  3.03055 12.6014 -23.5386
HEad  0.810905 -20.3395 -6.33194
LeftShoulder1  6.44543 -13.4806 -31.9104
LeftArm  5.08369 -10.2135 -37.4015
LeftForeArm  -172.221 -64.6919 -161.046
LeftHand  -0.25398 0.0180481 5.50724
RightShoulder  0.641745 4.68496 -0.649262
RightArm  -59.1254 45.9625 -6.68022
RightForeArm  20.2687 5.14452 -2.1483
RightHand  -0.192997 1.0685 -3.78073
LeftUpLeg  -21.7502 11.5147 2.90171
LeftLeg  13.1007 -10.1717 -3.29253
LeftFoot  6.29838 1.33298 -8.82748
LeftToes  1.06244e-005 4.65869e-005 -8.65518e-006
1026
root  32.0123 38.97 13.0756 179.704 63.2094 175.698
RightUpLeg  -20.549 -37.7022 -4.59713
RightLeg  31.1171 -13.5398 -8.91251
RightFoot  -7.77522 -0.0944112 1.48482
RightToes  0.000481921 0.542163 -0.142578
Spine  26.9442 1.9562 21.7357
Spine1  3.29123 11.2618 -20.1722
HEad  0.022179 -20.1493 -4.04726
LeftShoulder1  6.82685 -13.7638 -33.4798
LeftArm  3.75641 -8.15688 -37.8145
LeftForeArm  -170.078 -63.2285 -162.39
LeftHand  -0.25398 0.0180481 5.50724
RightShoulder  0.484167 2.20899 0.350939
RightArm  -64.5235 48.2108 -1.35998
RightForeArm  11.0562 18.7888 1.62872
RightHand  -0.454853 0.561515 -8.66787
LeftUpLeg  -23.3567 11.637 3.0328
LeftLeg  14.2022 -12.3853 -3.61995
LeftFoot  6.06081 1.44813 -9.68613
LeftToes  1.06244e-005 4.65869e-005 -8.65518e-006
1027
root  32.1463 38.9866 13.1776 -178.71 60.8175 178.177
RightUpLeg  -18.6611 -39.9306 -4.18291
RightLeg  30.5678 -13.7203 -8.83977
RightFoot  -8.09442 -0.0987233 1.62723
RightToes  0.000481921 0.542163 -0.142578
Spine  25.594 1.38328 19.2751
Spine1  4.86258 9.04554 -15.4341
HEad  0.0419834 -18.6787 -1.74214
LeftShoulder1  7.41207 -14.2226 -35.7378
LeftArm  2.21546 -5.54298 -37.4309
LeftForeArm  -170.544 -61.4111 -163.634
LeftHand  -0.25398 0.0180481 5.50724
RightShoulder  0.937695 2.43739 7.94567
RightArm  -59.0198 48.907 6.79455
RightForeArm  4.87344 45.2494 11.532
RightHand  -0.730727 2.37646 -11.2125
LeftUpLeg  -23.1514 10.2405 4.13265
LeftLeg  14.4881 -13.2742 -3.74791
LeftFoot  6.04668 1.46013 -9.77285
LeftToes  1.06244e-005 4.65869e-005 -8.65518e-006
1028
root  32.3501 39.118 13.2101 -178.706 60.5143 179.272
RightUpLeg  -16.1101 -39.7219 -4.50934
RightLeg  29.1141 -14.2807 -8.68903
RightFoot  -7.87842 -0.10737 1.77685
RightToes  0.000481921 0.542163 -0.142578
Spine  24.552 0.816366 16.7269
Spine1  6.43374 7.43646 -13.0556
HEad  1.40238 -16.7378 -0.146115
LeftShoulder1  7.54063 -14.1419 -36.6285
LeftArm  1.69855 -3.88202 -37.5383
LeftForeArm  -172.571 -60.227 -164.221
LeftHand  -0.25398 0.0180481 5.50724
RightShoulder  2.04972 5.7801 15.2801
RightArm  -45.7272 45.033 18.5374
RightForeArm  20.8623 69.3598 31.0569
RightHand  -0.442973 0.456819 -8.77878
LeftUpLeg  -21.3688 9.0002 5.2844
LeftLeg  13.5076 -12.4663 -3.42067
LeftFoot  6.25157 1.3979 -9.26608
LeftToes  1.06244e-005 4.65869e-005 -8.65518e-006
1029
root  32.6193 39.3165 13.1377 -179.131 61.8575 179.328
RightUpLeg  -14.0931 -38.9131 -4.92749
RightLeg  26.9297 -14.0562 -7.88833
RightFoot  -7.37884 -0.10957 1.72143
RightToes  0.000481921 0.542163 -0.142578
Spine  23.4376 0.812525 14.8567
Spine1  7.08679 6.88822 -12.5863
HEad  3.29356 -15.4323 0.701862
LeftShoulder1  7.21674 -13.521 -36.2959
LeftArm  2.85194 -3.7154 -38.4892
LeftForeArm  -172.341 -59.5917 -164.625
LeftHand  -0.25398 0.0180481 5.50724
RightShoulder  3.55627 9.00106 22.1799
RightArm  -33.6847 36.4058 28.9233
RightForeArm  103.325 79.4904 104.817
RightHand  -0.165312 -2.14467 -5.34057
LeftUpLeg  -19.1196 8.23867 6.12659
LeftLeg  11.6179 -10.5948 -2.86249
LeftFoot  6.49142 1.36744 -8.9549
LeftToes  1.06244e-005 4.65869e-005 -8.65518e-006
1030
root  32.9107 39.511 12.9536 -179.171 63.4666 179.423
RightUpLeg  -12.2675 -38.9122 -5.40061
RightLeg  24.401 -12.9154 -6.4157
RightFoot  -6.8151 -0.108999 1.5865
RightToes  0.000481921 0.542163 -0.142578
Spine  21.8194 1.38335 13.2229
Spine1  7.45192 6.63991 -11.0225
HEad  4.59714 -14.7149 0.508032
LeftShoulder1  7.00361 -12.9887 -36.3721
LeftArm  4.29925 -4.47791 -39.6089
LeftForeArm  -169.81 -58.6688 -165.367
LeftHand  -0.25398 0.0180481 5.50724
RightShoulder  5.10839 10.4525 30.7068
RightArm  -24.133 26.2477 33.3897
RightForeArm  167.608 69.0828 154.981
RightHand  -0.018511 -2.21112 -0.421003
LeftUpLeg  -17.1492 7.74421 6.81496
LeftLeg  9.92002 -8.69374 -2.4391
LeftFoot  6.42451 1.38208 -9.08107
LeftToes  1.06244e-005 4.65869e-005 -8.65518e-006
1031
root  33.1545 39.6579 12.7057 -179.007 65.224 179.93
RightUpLeg  -10.1643 -37.5002 -6.30436
RightLeg  22.2264 -12.9119 -4.88327
RightFoot  -6.24472 -0.117135 1.66836
RightToes  0.000481921 0.542163 -0.142578
Spine  19.8973 1.97451 11.2538
Spine1  8.28801 5.9956 -7.82089
HEad  5.27249 -13.2981 -0.465031
LeftShoulder1  7.03568 -12.765 -37.1285
LeftArm  4.31062 -5.44641 -40.3147
LeftForeArm  -168.133 -57.0899 -166.351
LeftHand  -0.25398 0.0180481 5.50724
RightShoulder  6.25679 10.7152 37.9785
RightArm  -17.1395 17.9473 34.6531
RightForeArm  -174.477 60.3852 164.203
RightHand  0.153598 -0.521692 3.82815
LeftUpLeg  -15.4533 7.77294 7.42554
LeftLeg  9.16322 -7.18596 -2.18687
LeftFoot  5.89291 1.3623 -9.21216
LeftToes  1.06244e-005 4.65869e-005 -8.65518e-006
1032
root  33.3196 39.7536 12.4407 -179.267 67.6994 -179.655
RightUpLeg  -8.29295 -34.1525 -7.31505
RightLeg  20.6997 -13.9208 -3.8266
RightFoot  -5.73637 -0.139877 2.00985
RightToes  0.000481921 0.542163 -0.142578
Spine  18.2772 2.00943 9.25273
Spine1  9.13503 4.97575 -5.20537
HEad  6.00174 -10.3346 -1.95736
LeftShoulder1  6.98728 -12.582 -37.3115
LeftArm  2.67654 -6.47006 -40.4519
LeftForeArm  -168.443 -55.3253 -167.204
LeftHand  -0.25398 0.0180481 5.50724
RightShoulder  6.79193 11.1009 40.3589
RightArm  -12.5738 12.6746 37.5629
RightForeArm  -173.088 57.0243 166.038
RightHand  0.220506 0.147363 4.62709
LeftUpLeg  -13.7453 8.33178 7.90387
LeftLeg  9.25667 -5.56225 -1.98667
LeftFoot  5.05358 1.26799 -9.00131
LeftToes  1.06244e-005 4.65869e-005 -8.65518e-006
1033
root  33.4186 39.7983 12.1618 179.759 70.7953 -179.793
RightUpLeg  -7.18684 -31.692 -8.06166
RightLeg  19.8643 -13.3305 -3.27123
RightFoot  -5.38926 -0.160093 2.34022
RightToes  0.000481921 0.542163 -0.142578
Spine  17.2086 1.47411 7.71552
Spine1  9.27599 3.92232 -4.40226
HEad  7.58168 -6.50476 -2.63602
LeftShoulder1  6.77227 -12.3907 -36.5089
LeftArm  0.21691 -7.90568 -39.8918
LeftForeArm  -169.35 -54.1246 -167.694
LeftHand  -0.25398 0.0180481 5.50724
RightShoulder  6.85225 11.612 39.2329
RightArm  -9.78325 11.2385 41.0018
RightForeArm  179.909 57.1252 165.38
RightHand  0.0362499 0.0726927 0.911167
LeftUpLeg  -12.1175 9.38772 8.11392
LeftLeg  10.0518 -3.85729 -1.76205
LeftFoot  3.96654 1.13695 -8.62821
LeftToes  1.06244e-005 4.65869e-005 -8.65518e-006
1034
root  33.4574 39.7615 11.8508 178.105 74.1306 179.401
RightUpLeg  -7.01312 -31.0209 -8.6394
RightLeg  20.1014 -10.6252 -3.09875
RightFoot  -5.34209 -0.170206 2.55313
RightToes  0.000481921 0.542163 -0.142578
Spine  16.5421 0.823414 6.76473
Spine1  8.78568 3.11428 -4.63441
HEad  9.97262 -3.16967 -2.24491
LeftShoulder1  6.6408 -12.4114 -35.6509
LeftArm  -2.30816 -10.2997 -38.6549
LeftForeArm  -170.566 -54.002 -167.659
LeftHand  -0.25398 0.0180481 5.50724
RightShoulder  6.52502 11.6411 37.0625
RightArm  -7.62229 14.0342 43.1441
RightForeArm  170.998 59.1633 163.426
RightHand  -0.248571 1.07429 -4.55734
LeftUpLeg  -11.0755 11.5884 7.94709
LeftLeg  12.0138 -3.06493 -1.45854
LeftFoot  2.31222 0.997247 -8.44024
LeftToes  1.06244e-005 4.65869e-005 -8.65518e-006
1035
root  33.421 39.5906 11.5043 175.687 77.7736 177.844
RightUpLeg  -8.00908 -30.3913 -9.00995
RightLeg  21.9471 -7.40477 -3.3446
RightFoot  -5.81663 -0.176415 2.83986
RightToes  0.000481921 0.542163 -0.142578
Spine  16.5317 0.467874 6.48376
Spine1  7.80342 2.79527 -5.13726
HEad  12.298 -0.976198 -1.7596
LeftShoulder1  6.72807 -12.7047 -35.4375
LeftArm  -4.36895 -13.7793 -37.2428
LeftForeArm  -172.635 -54.7991 -167.14
LeftHand  -0.25398 0.0180481 5.50724
RightShoulder  5.93794 11.1539 34.5466
RightArm  -5.87785 19.4405 44.8142
RightForeArm  162.939 62.2108 160.556
RightHand  -0.593272 2.91405 -8.5859
LeftUpLeg  -10.9518 15.0627 7.56021
LeftLeg  15.6837 -3.27974 -1.018
LeftFoot  -0.183774 0.827338 -8.45158
LeftToes  1.06244e-005 4.65869e-005 -8.65518e-006
